<?xml version="1.0" encoding="utf-8"?>
<!-- Generator: Adobe Illustrator 17.1.0, SVG Export Plug-In . SVG Version: 6.00 Build 0)  -->
<!DOCTYPE svg PUBLIC "-//W3C//DTD SVG 1.1//EN" "http://www.w3.org/Graphics/SVG/1.1/DTD/svg11.dtd">
<svg version="1.1"
	 id="svg2" xmlns:sodipodi="http://sodipodi.sourceforge.net/DTD/sodipodi-0.dtd" xmlns:svg="http://www.w3.org/2000/svg" xmlns:inkscape="http://www.inkscape.org/namespaces/inkscape" xmlns:rdf="http://www.w3.org/1999/02/22-rdf-syntax-ns#" xmlns:dc="http://purl.org/dc/elements/1.1/" xmlns:cc="http://creativecommons.org/ns#" inkscape:version="0.91 r13725" sodipodi:docname="text.svg"
	 xmlns="http://www.w3.org/2000/svg" xmlns:xlink="http://www.w3.org/1999/xlink" x="0px" y="0px" viewBox="0 0 32 32"
	 enable-background="new 0 0 32 32" xml:space="preserve">
<sodipodi:namedview  bordercolor="#666666" borderopacity="1" guidetolerance="10" pagecolor="#ffffff" objecttolerance="10" id="namedview55" gridtolerance="10" inkscape:cy="16.278" showgrid="false" inkscape:cx="18.819718" inkscape:zoom="7.9" inkscape:current-layer="svg2" inkscape:window-maximized="0" inkscape:window-y="0" inkscape:window-x="0" inkscape:pageopacity="0" inkscape:window-height="561" inkscape:pageshadow="2" inkscape:window-width="766">
	</sodipodi:namedview>
<path id="path45" display="none" fill="#F9F9F9" d="M4.5,0.5c5.3,0,23,0,23,0l0,29h-23L4.5,0.5L4.5,0.5z"/>
<g id="g47" display="none">
	<path id="path49" display="inline" fill="none" d="M26.5,28.5h-21v-27h21V28.5z"/>
	<path id="path51" display="inline" fill="none" d="M4.5,0.5c5.3,0,23,0,23,0l0,29h-23L4.5,0.5L4.5,0.5z"/>
	
		<linearGradient id="path53_1_" gradientUnits="userSpaceOnUse" x1="492.8727" y1="-270.9792" x2="492.8727" y2="-226.5301" gradientTransform="matrix(0.6686 0 0 -0.6704 -313.2087 -151.9122)">
		<stop  offset="0" style="stop-color:#AAAAAA"/>
		<stop  offset="1" style="stop-color:#C8C8C8"/>
	</linearGradient>
	<path id="path53" display="inline" fill="none" stroke="url(#path53_1_)" d="M8,5.6h1.6H8z M9.8,5.6h1.5H9.8z M11.5,5.6h1.3H11.5z
		 M13,5.6h0.6H13z M13.8,5.6H15H13.8z M15.3,5.6h3.3H15.3z M18.8,5.6h2.5H18.8z M21.5,5.6h0.8H21.5z M8,7.5h2.1H8z M10.3,7.5h3.4
		H10.3z M13.9,7.5h1.7H13.9z M15.7,7.5h1.5H15.7z M17.5,7.5h1.3H17.5z M19,7.5l2.1,0L19,7.5z M21.3,7.5h3.4H21.3z M8,9.5h2.9H8z
		 M11.1,9.5h3.1H11.1z M14.4,9.5h1.2H14.4z M15.8,9.5h2.9H15.8z M18.9,9.5h2H18.9z M21.1,9.5h0.8H21.1z M22.1,9.5h0.4H22.1z
		 M22.8,9.5H24H22.8z M8,11.5h1.1H8z M9.4,11.5h3.9H9.4z M8,14.5h2.6H8z M10.8,14.5h2.8H10.8z M13.9,14.5H15H13.9z M15.2,14.5h2.7
		H15.2z M18,14.5h3.3H18z M21.6,14.5h1.2H21.6z M8,16.5h2.9H8z M11.1,16.5h3.1H11.1z M14.4,16.5h1.2H14.4z M15.8,16.5h2.9H15.8z
		 M18.9,16.5h2H18.9z M21.1,16.5h0.8H21.1z M22.1,16.5h0.4H22.1z M22.8,16.5H24H22.8z M8,18.5h2.4H8z M10.7,18.5h1.2H10.7z
		 M12.1,18.5h0.6H12.1z M12.9,18.5H14H12.9z M14.2,18.5h1.1H14.2z M15.5,18.5h1.7H15.5z M17.5,18.5h2.3H17.5z M19.9,18.5h1.5H19.9z
		 M21.6,18.5H22H21.6z M8,21.5h2.1H8z M10.3,21.5h3.4H10.3z M13.9,21.5h1.7H13.9z M15.7,21.5h1.5H15.7z M17.5,21.5h1.3H17.5z
		 M19,21.5l2.1,0L19,21.5z M21.3,21.5h3.4H21.3z M8,23.5h2.6H8z M10.8,23.5h0.8H10.8z M11.8,23.5h1.9H11.8z M13.9,23.5h2.7H13.9z
		 M16.9,23.5h1.9H16.9z M18.9,23.5h0.4H18.9z M19.5,23.5h2.4H19.5z M22.1,23.5h1.2H22.1z M8,25.5h2.6H8z M10.8,25.5H12H10.8z
		 M12.2,25.5H14H12.2z M14.2,25.5h2H14.2z M16.5,25.5h0.8H16.5z M17.5,25.5h0.4H17.5z M18.1,25.5h1.2H18.1z"/>
</g>
<path fill="#E34947" d="M22.6,2H5v28h22V6L22.6,2z"/>
<g>
	<g>
		<path id="path4463_1_" fill="#FFFFFF" d="M12.6,16.5c0.6-1,1.2-2.1,1.7-3.3l0,0l0.2-0.4c-0.7-2.3-1.1-4.2-0.7-5.4l0,0
			c0.1-0.3,0.5-0.5,0.9-0.5l0,0l0.3,0h0c0.6,0,0.9,0.7,0.9,0.9l0,0C16,8.3,15.8,9,15.8,9l0,0c0-0.3,0-0.8-0.2-1.2l0,0
			c-0.2-0.5-0.5-0.8-0.7-0.8l0,0c-0.1,0.1-0.2,0.2-0.2,0.4l0,0c-0.1,0.4-0.1,0.8-0.1,1l0,0c0,0.8,0.2,1.9,0.5,3l0,0
			c0.1-0.2,0.1-0.3,0.2-0.5l0,0c0.1-0.2,0.5-1.9,0.5-1.9l0,0c0,0-0.1,2.2-0.3,2.8l0,0c0,0.1-0.1,0.3-0.1,0.4l0,0
			c0.6,1.5,1.5,2.8,2.6,3.7l0,0c0.4,0.4,1,0.7,1.5,0.9l0,0c1.1-0.1,2.2-0.2,3-0.2l0,0c1.1,0,2,0.2,2.3,0.5l0,0
			c0.2,0.1,0.2,0.3,0.3,0.5l0,0c0,0.1,0,0.3,0,0.3l0,0c0-0.1,0-0.3-0.9-0.6l0,0c-0.7-0.2-2.1-0.2-3.7,0l0,0c1.9,0.8,3.7,1.3,4.3,1
			l0,0c0.1-0.1,0.3-0.3,0.3-0.3l0,0c0,0-0.1,0.4-0.2,0.5l0,0c-0.1,0.1-0.3,0.2-0.5,0.3l0,0c-0.9,0.2-3.3-0.3-5.4-1.4l0,0
			c-2.3,0.3-4.9,0.9-6.9,1.5l0,0c-2,3.2-3.5,4.7-4.7,4.2l0,0l-0.5-0.2c-0.2-0.1-0.2-0.3-0.2-0.5l0,0c0.1-0.6,1-1.6,2.8-2.6l0,0
			c0.2-0.1,1-0.5,1-0.5l0,0c0,0-0.6,0.6-0.8,0.7l0,0c-1.4,1.1-2.4,2.4-2.4,2.9l0,0l0,0C8.5,22.9,10.3,20.7,12.6,16.5 M13.4,16.9
			c-0.4,0.7-0.8,1.3-1.1,1.9l0,0c1.9-0.7,4-1.2,6-1.5l0,0c-0.3-0.2-0.5-0.3-0.8-0.5l0,0c-1.1-0.8-1.9-1.9-2.5-3l0,0
			C14.6,14.6,14.1,15.6,13.4,16.9"/>
	</g>
	<path fill="#FFFFFF" d="M14.4,21.3h1.3c0.4,0,0.7,0.1,0.9,0.3c0.2,0.2,0.3,0.5,0.3,0.9c0,0.4-0.1,0.7-0.3,0.9
		c-0.2,0.2-0.5,0.3-0.9,0.3h-0.5v1.3h-0.8V21.3 M15.2,22v1h0.4c0.2,0,0.3,0,0.4-0.1c0.1-0.1,0.1-0.2,0.1-0.4c0-0.2,0-0.3-0.1-0.4
		c-0.1-0.1-0.2-0.1-0.4-0.1H15.2 M18.3,22.1v2.3h0.3c0.3,0,0.6-0.1,0.7-0.3c0.2-0.2,0.3-0.5,0.3-0.9c0-0.4-0.1-0.7-0.3-0.8
		c-0.2-0.2-0.4-0.3-0.7-0.3H18.3 M17.5,21.3h0.8c0.5,0,0.8,0,1,0.1c0.2,0.1,0.4,0.2,0.6,0.4c0.1,0.2,0.3,0.4,0.3,0.6
		c0.1,0.2,0.1,0.5,0.1,0.7c0,0.3,0,0.5-0.1,0.8c-0.1,0.2-0.2,0.4-0.3,0.6c-0.2,0.2-0.4,0.3-0.6,0.4c-0.2,0.1-0.6,0.1-1,0.1h-0.8
		V21.3 M21,21.3h2.1v0.7h-1.3v0.7H23v0.7h-1.3v1.6H21V21.3"/>
</g>
</svg>
