<?xml version="1.0" encoding="utf-8"?>
<!-- Generator: Adobe Illustrator 17.1.0, SVG Export Plug-In . SVG Version: 6.00 Build 0)  -->
<!DOCTYPE svg PUBLIC "-//W3C//DTD SVG 1.1//EN" "http://www.w3.org/Graphics/SVG/1.1/DTD/svg11.dtd">
<svg version="1.1"
	 id="Layer_1" xmlns:sodipodi="http://sodipodi.sourceforge.net/DTD/sodipodi-0.dtd" xmlns:svg="http://www.w3.org/2000/svg" xmlns:inkscape="http://www.inkscape.org/namespaces/inkscape" xmlns:rdf="http://www.w3.org/1999/02/22-rdf-syntax-ns#" xmlns:dc="http://purl.org/dc/elements/1.1/" xmlns:cc="http://creativecommons.org/ns#" inkscape:version="0.91 r13725" sodipodi:docname="folder.svg"
	 xmlns="http://www.w3.org/2000/svg" xmlns:xlink="http://www.w3.org/1999/xlink" x="0px" y="0px" viewBox="290 0 1080 1080"
	 enable-background="new 290 0 1080 1080" xml:space="preserve">
<sodipodi:namedview  bordercolor="#666666" borderopacity="1" guidetolerance="10" pagecolor="#ffffff" objecttolerance="10" id="namedview9" units="mm" gridtolerance="10" fit-margin-top="3.5" inkscape:cy="25.825301" showgrid="false" inkscape:cx="22.343556" inkscape:zoom="7.375" fit-margin-left="2" inkscape:snap-page="true" fit-margin-bottom="3.5" fit-margin-right="2" inkscape:current-layer="g3" inkscape:window-maximized="0" inkscape:window-y="0" inkscape:window-x="0" inkscape:pageopacity="0" inkscape:window-height="734" inkscape:pageshadow="2" inkscape:window-width="945">
	</sodipodi:namedview>
<g id="g3" transform="translate(4.4186142,5.3975727)">
	<rect id="rect5" x="444.2" y="230.6" fill="#239BBE" width="320.1" height="77.6"/>
	<rect id="rect7" x="402.1" y="308.2" fill="#A5E3EE" width="869.8" height="562.6"/>
</g>
<g transform="matrix(.67042 -.67042 .67042 .67042 8.6253 104.14)" opacity="0.7">
	<path fill="#FFFFFF" d="M266.4,906.3c-45.3,0-80.8,35.6-80.8,80.8c0,3.2,0,6.5,0,12.9h48.5c0-3.2-3.2-6.5-3.2-12.9
		c0-19.4,16.2-35.6,35.6-35.6h116.4c19.4,0,35.6,16.2,35.6,35.6c0,19.4-16.2,35.6-35.6,35.6H344c-6.5,19.4-19.4,35.6-32.3,45.3h71.1
		c45.3,0,80.8-35.6,80.8-80.8c0-45.3-35.6-80.8-80.8-80.8H266.4L266.4,906.3z"/>
	<path fill="#FFFFFF" d="M243.8,1068c45.3,0,80.8-35.6,80.8-80.8c0-3.2,0-6.5,0-12.9h-48.5c0,3.2,3.2,6.5,3.2,12.9
		c0,19.4-16.2,35.6-35.6,35.6H127.4c-19.4,0-35.6-16.2-35.6-35.6c0-19.4,16.2-35.6,35.6-35.6h38.8c6.5-19.4,19.4-35.6,32.3-45.3
		h-71.1c-45.3,0-80.8,35.6-80.8,80.8c0,45.3,35.6,80.8,80.8,80.8H243.8L243.8,1068z"/>
</g>
</svg>
