<?xml version="1.0" encoding="utf-8"?>
<!-- Generator: Adobe Illustrator 17.1.0, SVG Export Plug-In . SVG Version: 6.00 Build 0)  -->
<!DOCTYPE svg PUBLIC "-//W3C//DTD SVG 1.1//EN" "http://www.w3.org/Graphics/SVG/1.1/DTD/svg11.dtd">
<svg version="1.1"
	 id="Layer_1" xmlns:sodipodi="http://sodipodi.sourceforge.net/DTD/sodipodi-0.dtd" xmlns:svg="http://www.w3.org/2000/svg" xmlns:inkscape="http://www.inkscape.org/namespaces/inkscape" xmlns:rdf="http://www.w3.org/1999/02/22-rdf-syntax-ns#" xmlns:dc="http://purl.org/dc/elements/1.1/" xmlns:cc="http://creativecommons.org/ns#" inkscape:version="0.91 r13725" sodipodi:docname="folder.svg"
	 xmlns="http://www.w3.org/2000/svg" xmlns:xlink="http://www.w3.org/1999/xlink" x="0px" y="0px" viewBox="290 0 1080 1080"
	 enable-background="new 290 0 1080 1080" xml:space="preserve">
<sodipodi:namedview  bordercolor="#666666" borderopacity="1" guidetolerance="10" pagecolor="#ffffff" objecttolerance="10" id="namedview9" units="mm" gridtolerance="10" fit-margin-top="3.5" inkscape:cy="25.825301" showgrid="false" inkscape:cx="22.343556" inkscape:zoom="7.375" fit-margin-left="2" inkscape:snap-page="true" fit-margin-bottom="3.5" fit-margin-right="2" inkscape:current-layer="g3" inkscape:window-maximized="0" inkscape:window-y="0" inkscape:window-x="0" inkscape:pageopacity="0" inkscape:window-height="734" inkscape:pageshadow="2" inkscape:window-width="945">
	</sodipodi:namedview>
<g id="g3" transform="translate(4.4186142,5.3975727)">
	<rect id="rect5" x="444.2" y="230.6" fill="#239BBE" width="320.1" height="77.6"/>
	<rect id="rect7" x="402.1" y="308.2" fill="#A5E3EE" width="869.8" height="562.6"/>
</g>
<g transform="translate(6.9998 -1026.4)" opacity="0.7">
	<path fill="#FFFFFF" d="M933.1,1470.4c-32.3,0-55,25.9-55,55c0,3.2,0,3.2,0,6.5l-106.7,55c-9.7-9.7-22.6-12.9-35.6-12.9
		c-32.3,0-55,25.9-55,55c0,32.3,25.9,55,55,55c12.9,0,22.6-3.2,32.3-9.7l109.9,55v3.2c0,32.3,25.9,55,55,55s55-25.9,55-55
		c0-32.3-25.9-55-55-55c-12.9,0-29.1,6.5-38.8,16.2l-106.7-55c0-3.2,0-6.5,0-9.7c0-3.2,0-3.2,0-6.5l106.7-55
		c9.7,9.7,22.6,12.9,35.6,12.9c32.3,0,55-25.9,55-55S965.4,1470.4,933.1,1470.4L933.1,1470.4z"/>
</g>
</svg>
