<?xml version="1.0" encoding="UTF-8" standalone="no"?>
<svg
   xmlns:dc="http://purl.org/dc/elements/1.1/"
   xmlns:cc="http://creativecommons.org/ns#"
   xmlns:rdf="http://www.w3.org/1999/02/22-rdf-syntax-ns#"
   xmlns:svg="http://www.w3.org/2000/svg"
   xmlns="http://www.w3.org/2000/svg"
   xmlns:xlink="http://www.w3.org/1999/xlink"
   xmlns:sodipodi="http://sodipodi.sourceforge.net/DTD/sodipodi-0.dtd"
   xmlns:inkscape="http://www.inkscape.org/namespaces/inkscape"
   height="32px"
   width="32px"
   version="1.1"
   id="svg2"
   inkscape:version="0.91 r13725"
   sodipodi:docname="text.svg">
  <metadata
     id="metadata57">
    <rdf:RDF>
      <cc:Work
         rdf:about="">
        <dc:format>image/svg+xml</dc:format>
        <dc:type
           rdf:resource="http://purl.org/dc/dcmitype/StillImage" />
      </cc:Work>
    </rdf:RDF>
  </metadata>
  <sodipodi:namedview
     pagecolor="#ffffff"
     bordercolor="#666666"
     borderopacity="1"
     objecttolerance="10"
     gridtolerance="10"
     guidetolerance="10"
     inkscape:pageopacity="0"
     inkscape:pageshadow="2"
     inkscape:window-width="766"
     inkscape:window-height="561"
     id="namedview55"
     showgrid="false"
     inkscape:zoom="7.9"
     inkscape:cx="18.819718"
     inkscape:cy="16.278"
     inkscape:window-x="0"
     inkscape:window-y="0"
     inkscape:window-maximized="0"
     inkscape:current-layer="svg2" />
  <defs
     id="defs4">
    <linearGradient
       id="j"
       x1="22.004"
       gradientUnits="userSpaceOnUse"
       y1="47.813"
       gradientTransform="matrix(.66858 0 0 .67037 -.67962 -2.3083)"
       x2="22.004"
       y2="3.3639">
      <stop
         stop-color="#aaa"
         offset="0"
         id="stop7" />
      <stop
         stop-color="#c8c8c8"
         offset="1"
         id="stop9" />
    </linearGradient>
    <linearGradient
       id="h"
       x1="24"
       gradientUnits="userSpaceOnUse"
       y1="5.5641"
       gradientTransform="matrix(.56757 0 0 .72973 2.3784 -2.5135)"
       x2="24"
       y2="43">
      <stop
         stop-color="#fff"
         offset="0"
         id="stop12" />
      <stop
         stop-color="#fff"
         stop-opacity=".23529"
         offset=".036262"
         id="stop14" />
      <stop
         stop-color="#fff"
         stop-opacity=".15686"
         offset=".95056"
         id="stop16" />
      <stop
         stop-color="#fff"
         stop-opacity=".39216"
         offset="1"
         id="stop18" />
    </linearGradient>
    <linearGradient
       id="i"
       x1="25.132"
       gradientUnits="userSpaceOnUse"
       y1=".98521"
       gradientTransform="matrix(.65714 0 0 .63012 .22856 -1.0896)"
       x2="25.132"
       y2="47.013">
      <stop
         stop-color="#f4f4f4"
         offset="0"
         id="stop21" />
      <stop
         stop-color="#dbdbdb"
         offset="1"
         id="stop23" />
    </linearGradient>
    <radialGradient
       id="l"
       xlink:href="#a"
       gradientUnits="userSpaceOnUse"
       cy="486.65"
       cx="605.71"
       gradientTransform="matrix(.015663 0 0 .0082353 17.61 25.981)"
       r="117.14" />
    <linearGradient
       id="a">
      <stop
         offset="0"
         id="stop27" />
      <stop
         stop-opacity="0"
         offset="1"
         id="stop29" />
    </linearGradient>
    <radialGradient
       id="m"
       xlink:href="#a"
       gradientUnits="userSpaceOnUse"
       cy="486.65"
       cx="605.71"
       gradientTransform="matrix(-.015663 0 0 .0082353 14.39 25.981)"
       r="117.14" />
    <linearGradient
       id="k"
       x1="302.86"
       gradientUnits="userSpaceOnUse"
       x2="302.86"
       gradientTransform="matrix(.045769 0 0 .0082353 -.54232 25.981)"
       y1="366.65"
       y2="609.51">
      <stop
         stop-opacity="0"
         offset="0"
         id="stop33" />
      <stop
         offset=".5"
         id="stop35" />
      <stop
         stop-opacity="0"
         offset="1"
         id="stop37" />
    </linearGradient>
  </defs>
  <path
     d="m4.5 0.49996c5.2705 0 23 0.00185 23 0.00185l0.000028 28.998h-23v-29z"
     fill="url(#i)"
     id="path45"
     style="stroke:none;fill:#f9f9f9;fill-opacity:1" />
  <g
     fill="none"
     id="g47">
    <path
       stroke-linejoin="round"
       stroke="url(#h)"
       stroke-linecap="round"
       d="m26.5 28.5h-21v-27h21z"
       id="path49"
       style="stroke:none" />
    <path
       opacity=".3"
       stroke-linejoin="round"
       stroke="#000"
       stroke-width=".99992"
       d="m4.5 0.49996c5.2705 0 23 0.00185 23 0.00185l0.000028 28.998h-23v-29z"
       id="path51"
       style="stroke:none" />
    <path
       stroke="url(#j)"
       stroke-width="1px"
       d="m8 5.5677h1.567zm1.7968 0h1.4625zm1.6924 0h1.2954zm1.5043 0h0.56412zm0.79394 0h1.2536zm1.5043 0h3.3011zm3.5101 0h2.5281zm2.737 0h0.77305zm-13.539 1.9218h2.0684zm2.2774 0h3.3847zm3.5936 0h1.6506zm1.8595 0h1.5461zm1.755 0h1.3163zm1.5252 0 2.0684 0.020955zm2.2565 0.020955h3.3638zm-13.266 1.9895h2.8624zm3.0922 0h3.0922zm3.3011 0h1.2327zm1.4416 0h2.9042zm3.0922 0h1.9849zm2.2147 0h0.79394zm1.0029 0h0.43876zm0.66858 0h1.2327zm-14.813 2h1.0656zm1.3998 0h3.9488zm-1.3998 3h2.6325zm2.8415 0h2.8206zm3.0295 0h1.0864zm1.2954 0h2.6534zm2.8624 0h3.3429zm3.5727 0h1.2327zm-13.602 2h2.8624zm3.0922 0h3.0922zm3.3011 0h1.2327zm1.4416 0h2.9042zm3.0922 0h1.9849zm2.2147 0h0.79394zm1.0029 0h0.43876zm0.66858 0h1.2327zm-14.813 2h2.4445zm2.7161 0h1.17zm1.379 0h0.58501zm0.81484 0h1.0656zm1.2954 0h1.0864zm1.2954 0h1.7341zm1.964 0h2.2565zm2.4654 0h1.5043zm1.7132 0h0.37608zm-13.643 2.9895h2.0684zm2.2774 0h3.3847zm3.5936 0h1.6506zm1.8595 0h1.5461zm1.755 0h1.3163zm1.5252 0 2.0684 0.02095zm2.2565 0.02095h3.3638zm-13.266 1.989h2.5908zm2.8206 0h0.81484zm1.0238 0h1.8595zm2.0684 0h2.737zm2.9668 0h1.8595zm2.0475 0h0.39697zm0.6059 0h2.3609zm2.6117 0h1.2327zm-14.145 2h2.5908zm2.8206 0h1.17zm1.379 0h1.8386zm2.0475 0h1.9849zm2.2147 0h0.79394zm1.0029 0h0.43876zm0.66858 0h1.2327z"
       id="path53" />
  </g>
</svg>
