<?xml version="1.0" encoding="UTF-8" standalone="no"?>
<svg
   xmlns:dc="http://purl.org/dc/elements/1.1/"
   xmlns:cc="http://creativecommons.org/ns#"
   xmlns:rdf="http://www.w3.org/1999/02/22-rdf-syntax-ns#"
   xmlns:svg="http://www.w3.org/2000/svg"
   xmlns="http://www.w3.org/2000/svg"
   xmlns:xlink="http://www.w3.org/1999/xlink"
   xmlns:sodipodi="http://sodipodi.sourceforge.net/DTD/sodipodi-0.dtd"
   xmlns:inkscape="http://www.inkscape.org/namespaces/inkscape"
   height="32px"
   width="32px"
   version="1.1"
   id="svg2"
   inkscape:version="0.91 r13725"
   sodipodi:docname="x-office-document.svg">
  <metadata
     id="metadata79">
    <rdf:RDF>
      <cc:Work
         rdf:about="">
        <dc:format>image/svg+xml</dc:format>
        <dc:type
           rdf:resource="http://purl.org/dc/dcmitype/StillImage" />
      </cc:Work>
    </rdf:RDF>
  </metadata>
  <sodipodi:namedview
     pagecolor="#ffffff"
     bordercolor="#666666"
     borderopacity="1"
     objecttolerance="10"
     gridtolerance="10"
     guidetolerance="10"
     inkscape:pageopacity="0"
     inkscape:pageshadow="2"
     inkscape:window-width="823"
     inkscape:window-height="623"
     id="namedview77"
     showgrid="false"
     inkscape:zoom="7.375"
     inkscape:cx="16"
     inkscape:cy="16"
     inkscape:window-x="0"
     inkscape:window-y="0"
     inkscape:window-maximized="0"
     inkscape:current-layer="svg2" />
  <defs
     id="defs4">
    <linearGradient
       id="f"
       x1="24"
       gradientUnits="userSpaceOnUse"
       y1="5.5641"
       gradientTransform="matrix(.66892 0 0 .72973 1.8209 -2.5135)"
       x2="24"
       y2="43">
      <stop
         stop-color="#FFF"
         offset="0"
         id="stop7" />
      <stop
         stop-color="#FFF"
         stop-opacity=".23529"
         offset=".036262"
         id="stop9" />
      <stop
         stop-color="#FFF"
         stop-opacity=".15686"
         offset=".95056"
         id="stop11" />
      <stop
         stop-color="#FFF"
         stop-opacity=".39216"
         offset="1"
         id="stop13" />
    </linearGradient>
    <radialGradient
       id="b"
       fx="7.2758"
       gradientUnits="userSpaceOnUse"
       cy="9.9571"
       cx="7.8061"
       gradientTransform="matrix(-1.1779e-7 4.3522 -5.8956 -1.3064e-7 75.942 -39.435)"
       r="12.672">
      <stop
         stop-color="#90dbec"
         offset="0"
         id="stop16" />
      <stop
         stop-color="#55c1ec"
         offset=".26238"
         id="stop18" />
      <stop
         stop-color="#3689e6"
         offset=".70495"
         id="stop20" />
      <stop
         stop-color="#2b63a0"
         offset="1"
         id="stop22" />
    </radialGradient>
    <linearGradient
       id="i"
       x1="21.982"
       gradientUnits="userSpaceOnUse"
       x2="21.982"
       gradientTransform="translate(-2.9821 -6.0421)"
       y1="36.042"
       y2="6.0421">
      <stop
         stop-color="#AAA"
         offset="0"
         id="stop25" />
      <stop
         stop-color="#c8c8c8"
         offset="1"
         id="stop27" />
    </linearGradient>
    <linearGradient
       id="h"
       x1="24"
       gradientUnits="userSpaceOnUse"
       y1="5.5641"
       gradientTransform="matrix(.56757 0 0 .72973 2.3784 -2.5135)"
       x2="24"
       y2="43">
      <stop
         stop-color="#FFF"
         offset="0"
         id="stop30" />
      <stop
         stop-color="#FFF"
         stop-opacity=".23529"
         offset=".036262"
         id="stop32" />
      <stop
         stop-color="#FFF"
         stop-opacity=".15686"
         offset=".95056"
         id="stop34" />
      <stop
         stop-color="#FFF"
         stop-opacity=".39216"
         offset="1"
         id="stop36" />
    </linearGradient>
    <linearGradient
       id="g"
       x1="25.132"
       gradientUnits="userSpaceOnUse"
       y1=".98521"
       gradientTransform="matrix(.65714 0 0 .63012 .22856 -1.0896)"
       x2="25.132"
       y2="47.013">
      <stop
         stop-color="#f4f4f4"
         offset="0"
         id="stop39" />
      <stop
         stop-color="#dbdbdb"
         offset="1"
         id="stop41" />
    </linearGradient>
    <radialGradient
       id="d"
       xlink:href="#a"
       gradientUnits="userSpaceOnUse"
       cy="486.65"
       cx="605.71"
       gradientTransform="matrix(.015663 0 0 .0082353 17.61 25.981)"
       r="117.14" />
    <linearGradient
       id="a">
      <stop
         offset="0"
         id="stop45" />
      <stop
         stop-opacity="0"
         offset="1"
         id="stop47" />
    </linearGradient>
    <radialGradient
       id="c"
       xlink:href="#a"
       gradientUnits="userSpaceOnUse"
       cy="486.65"
       cx="605.71"
       gradientTransform="matrix(-.015663 0 0 .0082353 14.39 25.981)"
       r="117.14" />
    <linearGradient
       id="e"
       x1="302.86"
       gradientUnits="userSpaceOnUse"
       x2="302.86"
       gradientTransform="matrix(.045769 0 0 .0082353 -.54232 25.981)"
       y1="366.65"
       y2="609.51">
      <stop
         stop-opacity="0"
         offset="0"
         id="stop51" />
      <stop
         offset=".5"
         id="stop53" />
      <stop
         stop-opacity="0"
         offset="1"
         id="stop55" />
    </linearGradient>
  </defs>
  <path
     d="m4.5 0.49996c5.2705 0 23 0.00185 23 0.00185l0.000028 28.998h-23v-29z"
     fill="url(#g)"
     id="path65"
     style="stroke:none" />
  <path
     stroke-linejoin="round"
     d="m26.5 28.5h-21v-27h21z"
     stroke="url(#h)"
     stroke-linecap="round"
     fill="none"
     id="path67"
     style="stroke:none" />
  <path
     d="m11 5.505h1.3436zm1.6874 0h2.1875zm2.5312 0h1.9375zm2.25 0h0.84375zm1.1875 0h1.875zm2.25 0h3.0938zm-9.9061 2h2.6561zm3.0624 0h1.75zm2.0625 0h0.875zm1.2188 0h1.5938zm1.9375 0h1.625zm1.9375 0h2.5938zm-10.219 1.995h3.2811zm3.6249 0h4.625zm4.9375 0h1.8438zm-9.906 2h1.5938zm1.0936 0h5.9062zm-1.0936 3.0372h2.0936zm2.4061 0h5.0625zm5.375 0h2.4688zm2.7812 0h2.3125zm-10.562 1.963h1.3436zm1.6874 0h2.1562zm2.5312 0h1.9375zm2.25 0h0.84375zm1.1875 0h1.875zm2.25 0h3.0938zm-9.9061 2.0753h3.2811zm3.6249 0h4.625zm4.9375 0h1.8438zm-8.562 2.925h2.0936zm2.4061 0h5.0625zm5.375 0h2.4688zm-7.7811 2h2.8749zm3.2186 0h1.2188zm1.5312 0h2.7812zm3.0938 0h4.0938zm-7.8436 2h2.8749zm3.2186 0h1.75zm2.0625 0h2.75zm3.0625 0h2.9688z"
     stroke="url(#i)"
     stroke-width="1px"
     fill="none"
     id="path69" />
  <path
     style="color:#000000;fill:#a5e3ee;fill-opacity:1"
     fill="url(#b)"
     d="m8.0261 29.5h-3.3605c-0.31067-0.34338-0.074432-1.0251-0.14825-1.5112v-27.322l0.043327-0.11794 0.10492-0.048698h3.3084"
     id="path71" />
  <path
     opacity=".5"
     stroke-linejoin="round"
     d="m8.5 28.5h-3v-27h3"
     stroke="url(#f)"
     fill="none"
     id="path73"
     style="stroke:none" />
  <path
     opacity=".3"
     stroke-linejoin="round"
     d="m4.5 0.49996c5.2705 0 23 0.00185 23 0.00185l0.000028 28.998h-23v-29z"
     stroke="#000"
     stroke-width=".99992"
     fill="none"
     id="path75"
     style="stroke:none" />
</svg>
