<?xml version="1.0" encoding="utf-8"?>
<!-- Generator: Adobe Illustrator 17.1.0, SVG Export Plug-In . SVG Version: 6.00 Build 0)  -->
<!DOCTYPE svg PUBLIC "-//W3C//DTD SVG 1.1//EN" "http://www.w3.org/Graphics/SVG/1.1/DTD/svg11.dtd">
<svg version="1.1"
	 id="Layer_1" xmlns:rdf="http://www.w3.org/1999/02/22-rdf-syntax-ns#" xmlns:dc="http://purl.org/dc/elements/1.1/" xmlns:cc="http://creativecommons.org/ns#"
	 xmlns="http://www.w3.org/2000/svg" xmlns:xlink="http://www.w3.org/1999/xlink" x="0px" y="0px" viewBox="0 0 128 128"
	 enable-background="new 0 0 128 128" xml:space="preserve">
<rect x="51" y="77.3" fill="#CFEFF9" width="14" height="11.6"/>
<rect x="37" y="77.3" fill="#A5E3EE" width="14" height="11.6"/>
<rect x="65" y="65.7" fill="#4BB6D0" width="14" height="11.6"/>
<rect x="9" y="65.7" fill="#A5E3EE" width="14" height="11.6"/>
<rect x="23" y="77.3" fill="#239BBE" width="14" height="11.6"/>
<rect x="23" y="54" fill="#A5E3EE" width="14" height="11.6"/>
<rect x="51" y="65.7" fill="#A5E3EE" width="14" height="11.6"/>
<rect x="65" y="77.3" fill="#A5E3EE" width="14" height="11.6"/>
<rect x="37.1" y="42.4" fill="#CFEFF9" width="14" height="11.6"/>
<rect x="37" y="54" fill="#056187" width="14" height="11.6"/>
<rect x="23" y="65.7" fill="#A5E3EE" width="14" height="11.6"/>
<rect x="51" y="88.9" fill="#239BBE" width="14" height="11.6"/>
<rect x="37" y="65.7" fill="#239BBE" width="14" height="11.6"/>
<rect x="93.2" y="77.3" fill="#CFEFF9" width="14" height="11.6"/>
<rect x="106" y="65.7" fill="#4BB6D0" width="14" height="11.6"/>
<rect x="92.8" y="65.7" fill="#A5E3EE" width="14" height="11.6"/>
<rect x="51" y="54" fill="#A5E3EE" width="14" height="11.6"/>
<rect x="79" y="65.7" fill="#239BBE" width="14" height="11.6"/>
<rect x="65" y="54" fill="#CFEFF9" width="14" height="11.6"/>
<rect x="79" y="42.4" fill="#4BB6D0" width="14" height="11.6"/>
<rect x="65" y="42.4" fill="#A5E3EE" width="14" height="11.6"/>
<rect x="79" y="54" fill="#A5E3EE" width="14" height="11.6"/>
<rect x="51" y="42.4" fill="#239BBE" width="14" height="11.6"/>
<rect x="92.8" y="54" fill="#4BB6D0" width="14" height="11.6"/>
<rect x="51" y="30.8" fill="#A5E3EE" width="14" height="11.6"/>
<rect x="65" y="30.8" fill="#239BBE" width="14" height="11.6"/>
</svg>
