<?xml version="1.0" encoding="utf-8"?>
<!-- Generator: Adobe Illustrator 17.1.0, SVG Export Plug-In . SVG Version: 6.00 Build 0)  -->
<!DOCTYPE svg PUBLIC "-//W3C//DTD SVG 1.1//EN" "http://www.w3.org/Graphics/SVG/1.1/DTD/svg11.dtd">
<svg version="1.1"
	 id="Layer_1" xmlns:rdf="http://www.w3.org/1999/02/22-rdf-syntax-ns#" xmlns:dc="http://purl.org/dc/elements/1.1/" xmlns:cc="http://creativecommons.org/ns#"
	 xmlns="http://www.w3.org/2000/svg" xmlns:xlink="http://www.w3.org/1999/xlink" x="0px" y="0px" viewBox="0 0 32 32"
	 enable-background="new 0 0 32 32" xml:space="preserve">
<rect x="12.6" y="18.3" fill="#CFEFF9" width="3.6" height="3"/>
<rect x="9" y="18.3" fill="#A5E3EE" width="3.6" height="3"/>
<rect x="16.1" y="15.3" fill="#4BB6D0" width="3.6" height="3"/>
<rect x="1.8" y="15.3" fill="#A5E3EE" width="3.6" height="3"/>
<rect x="5.4" y="18.3" fill="#239BBE" width="3.6" height="3"/>
<rect x="5.4" y="12.3" fill="#A5E3EE" width="3.6" height="3"/>
<rect x="12.6" y="15.3" fill="#A5E3EE" width="3.6" height="3"/>
<rect x="16.1" y="18.3" fill="#A5E3EE" width="3.6" height="3"/>
<rect x="9" y="9.4" fill="#CFEFF9" width="3.6" height="3"/>
<rect x="9" y="12.3" fill="#056187" width="3.6" height="3"/>
<rect x="5.4" y="15.3" fill="#A5E3EE" width="3.6" height="3"/>
<rect x="12.6" y="21.2" fill="#239BBE" width="3.6" height="3"/>
<rect x="9" y="15.3" fill="#239BBE" width="3.6" height="3"/>
<rect x="23.3" y="18.3" fill="#CFEFF9" width="3.6" height="3"/>
<rect x="26.6" y="15.3" fill="#4BB6D0" width="3.6" height="3"/>
<rect x="23.2" y="15.3" fill="#A5E3EE" width="3.6" height="3"/>
<rect x="12.6" y="12.3" fill="#A5E3EE" width="3.6" height="3"/>
<rect x="19.7" y="15.3" fill="#239BBE" width="3.6" height="3"/>
<rect x="16.1" y="12.3" fill="#CFEFF9" width="3.6" height="3"/>
<rect x="19.7" y="9.4" fill="#4BB6D0" width="3.6" height="3"/>
<rect x="16.1" y="9.4" fill="#A5E3EE" width="3.6" height="3"/>
<rect x="19.7" y="12.3" fill="#A5E3EE" width="3.6" height="3"/>
<rect x="12.6" y="9.4" fill="#239BBE" width="3.6" height="3"/>
<rect x="23.2" y="12.3" fill="#4BB6D0" width="3.6" height="3"/>
<rect x="12.6" y="6.4" fill="#A5E3EE" width="3.6" height="3"/>
<rect x="16.1" y="6.4" fill="#239BBE" width="3.6" height="3"/>
</svg>
