<?xml version="1.0" encoding="utf-8"?>
<!-- Generator: Adobe Illustrator 17.1.0, SVG Export Plug-In . SVG Version: 6.00 Build 0)  -->
<!DOCTYPE svg PUBLIC "-//W3C//DTD SVG 1.1//EN" "http://www.w3.org/Graphics/SVG/1.1/DTD/svg11.dtd">
<svg version="1.1" id="Layer_1" xmlns="http://www.w3.org/2000/svg" xmlns:xlink="http://www.w3.org/1999/xlink" x="0px" y="0px"
	 viewBox="0 0 350 350" enable-background="new 0 0 350 350" xml:space="preserve">
<rect x="141.746" y="204.625" fill="#CFEFF9" width="36.186" height="30"/>
<rect x="105.561" y="204.625" fill="#A5E3EE" width="36.186" height="30"/>
<rect x="177.932" y="174.625" fill="#4BB6D0" width="36.186" height="30"/>
<rect x="33.163" y="174.625" fill="#A5E3EE" width="36.186" height="30"/>
<rect x="69.375" y="204.625" fill="#239BBE" width="36.186" height="30"/>
<rect x="69.375" y="144.625" fill="#A5E3EE" width="36.186" height="30"/>
<rect x="141.746" y="174.625" fill="#A5E3EE" width="36.186" height="30"/>
<rect x="177.932" y="204.625" fill="#A5E3EE" width="36.186" height="30"/>
<rect x="105.819" y="114.625" fill="#CFEFF9" width="36.186" height="30"/>
<rect x="105.561" y="144.625" fill="#056187" width="36.186" height="30"/>
<rect x="69.375" y="174.625" fill="#A5E3EE" width="36.186" height="30"/>
<rect x="141.746" y="234.625" fill="#239BBE" width="36.186" height="30"/>
<rect x="105.561" y="174.625" fill="#239BBE" width="36.186" height="30"/>
<rect x="250.746" y="204.625" fill="#CFEFF9" width="36.186" height="30"/>
<rect x="283.932" y="174.625" fill="#4BB6D0" width="36.186" height="30"/>
<rect x="249.746" y="174.625" fill="#A5E3EE" width="36.186" height="30"/>
<rect x="141.746" y="144.625" fill="#A5E3EE" width="36.186" height="30"/>
<rect x="214.117" y="174.625" fill="#239BBE" width="36.186" height="30"/>
<rect x="177.932" y="144.625" fill="#CFEFF9" width="36.186" height="30"/>
<rect x="214.117" y="114.625" fill="#4BB6D0" width="36.186" height="30"/>
<rect x="177.932" y="114.625" fill="#A5E3EE" width="36.186" height="30"/>
<rect x="214.117" y="144.625" fill="#A5E3EE" width="36.186" height="30"/>
<rect x="141.746" y="114.625" fill="#239BBE" width="36.186" height="30"/>
<rect x="249.746" y="144.625" fill="#4BB6D0" width="36.186" height="30"/>
<rect x="141.746" y="84.625" fill="#A5E3EE" width="36.186" height="30"/>
<rect x="177.932" y="84.625" fill="#239BBE" width="36.186" height="30"/>
</svg>
