<?xml version="1.0" encoding="utf-8"?>
<!-- Generator: Adobe Illustrator 17.1.0, SVG Export Plug-In . SVG Version: 6.00 Build 0)  -->
<!DOCTYPE svg PUBLIC "-//W3C//DTD SVG 1.1//EN" "http://www.w3.org/Graphics/SVG/1.1/DTD/svg11.dtd">
<svg version="1.1"
	 id="Layer_1" xmlns:cc="http://creativecommons.org/ns#" xmlns:rdf="http://www.w3.org/1999/02/22-rdf-syntax-ns#" xmlns:dc="http://purl.org/dc/elements/1.1/"
	 xmlns="http://www.w3.org/2000/svg" xmlns:xlink="http://www.w3.org/1999/xlink" x="0px" y="0px" viewBox="0 0 300 250"
	 enable-background="new 0 0 300 250" xml:space="preserve">
<rect x="135.7" y="115.6" fill="#CFEFF9" width="16.6" height="13.8"/>
<rect x="119.1" y="115.6" fill="#A5E3EE" width="16.6" height="13.8"/>
<rect x="152.4" y="101.8" fill="#4BB6D0" width="16.6" height="13.8"/>
<rect x="85.9" y="101.8" fill="#A5E3EE" width="16.6" height="13.8"/>
<rect x="102.5" y="115.6" fill="#239BBE" width="16.6" height="13.8"/>
<rect x="102.5" y="88.1" fill="#A5E3EE" width="16.6" height="13.8"/>
<rect x="135.7" y="101.8" fill="#A5E3EE" width="16.6" height="13.8"/>
<rect x="152.4" y="115.6" fill="#A5E3EE" width="16.6" height="13.8"/>
<rect x="119.2" y="74.3" fill="#CFEFF9" width="16.6" height="13.8"/>
<rect x="119.1" y="88.1" fill="#056187" width="16.6" height="13.8"/>
<rect x="102.5" y="101.8" fill="#A5E3EE" width="16.6" height="13.8"/>
<rect x="135.7" y="129.4" fill="#239BBE" width="16.6" height="13.8"/>
<rect x="119.1" y="101.8" fill="#239BBE" width="16.6" height="13.8"/>
<rect x="185.8" y="115.6" fill="#CFEFF9" width="16.6" height="13.8"/>
<rect x="201" y="101.8" fill="#4BB6D0" width="16.6" height="13.8"/>
<rect x="185.3" y="101.8" fill="#A5E3EE" width="16.6" height="13.8"/>
<rect x="135.7" y="88.1" fill="#A5E3EE" width="16.6" height="13.8"/>
<rect x="169" y="101.8" fill="#239BBE" width="16.6" height="13.8"/>
<rect x="152.4" y="88.1" fill="#CFEFF9" width="16.6" height="13.8"/>
<rect x="169" y="74.3" fill="#4BB6D0" width="16.6" height="13.8"/>
<rect x="152.4" y="74.3" fill="#A5E3EE" width="16.6" height="13.8"/>
<rect x="169" y="88.1" fill="#A5E3EE" width="16.6" height="13.8"/>
<rect x="135.7" y="74.3" fill="#239BBE" width="16.6" height="13.8"/>
<rect x="185.3" y="88.1" fill="#4BB6D0" width="16.6" height="13.8"/>
<g enable-background="new    ">
	<path fill="#056187" d="M66,156.7v32.8H43.5v-32.8H66z M60.1,162.3H49.8v21.5h10.3V162.3z"/>
	<path fill="#056187" d="M86.6,174.5l-2.7,15h-7.5l-5.8-32.8H77l3.1,21.9l3.3-21.9h6.2l3.3,21.9l3.1-21.9h6.4l-5.8,32.8h-7.5
		L86.6,174.5z"/>
	<path fill="#056187" d="M113.4,189.5h-6.3v-32.8h6.3l10.3,18.4v-18.4h5.9v32.8h-5.9l-10.3-18.9V189.5z"/>
	<path fill="#056187" d="M140.5,183.9h16.2v5.6h-22.5v-32.8h22.5v5.6h-16.2V183.9z"/>
	<path fill="#056187" d="M167.5,183.9h16.2v5.6h-22.5v-32.8h6.3V183.9z"/>
	<path fill="#056187" d="M210.8,156.7v32.8h-22.5v-32.8H210.8z M204.9,162.3h-10.3v21.5h10.3V162.3z"/>
	<path fill="#056187" d="M232,156.7h5.9v32.8h-22.5v-32.8h6.3v27.2H232V156.7z"/>
	<path fill="#056187" d="M242.4,189.5v-32.8h20.1l2.4,2.9v27l-2.4,2.9L242.4,189.5L242.4,189.5z M259,162.3h-10.3v21.5H259V162.3z"
		/>
</g>
<rect x="135.7" y="60.5" fill="#A5E3EE" width="16.6" height="13.8"/>
<rect x="152.4" y="60.5" fill="#239BBE" width="16.6" height="13.8"/>
</svg>
