<?xml version="1.0" encoding="utf-8"?>
<!-- Generator: Adobe Illustrator 17.1.0, SVG Export Plug-In . SVG Version: 6.00 Build 0)  -->
<!DOCTYPE svg PUBLIC "-//W3C//DTD SVG 1.1//EN" "http://www.w3.org/Graphics/SVG/1.1/DTD/svg11.dtd">
<svg version="1.1"
	 id="Layer_1" xmlns:rdf="http://www.w3.org/1999/02/22-rdf-syntax-ns#" xmlns:dc="http://purl.org/dc/elements/1.1/" xmlns:cc="http://creativecommons.org/ns#"
	 xmlns="http://www.w3.org/2000/svg" xmlns:xlink="http://www.w3.org/1999/xlink" x="0px" y="0px" viewBox="0 0 150 34"
	 enable-background="new 0 0 150 34" xml:space="preserve">
<text transform="matrix(1 0 0 1 49.9863 27)" fill="#056187" font-family="'SquareFont'" font-size="18.3496">owncloud</text>
<rect x="19.1" y="22.2" fill="#CFEFF9" width="5" height="4.2"/>
<rect x="14.1" y="22.2" fill="#A5E3EE" width="5" height="4.2"/>
<rect x="24.2" y="18" fill="#4BB6D0" width="5" height="4.2"/>
<rect x="4" y="18" fill="#A5E3EE" width="5" height="4.2"/>
<rect x="9" y="22.2" fill="#239BBE" width="5" height="4.2"/>
<rect x="9" y="13.8" fill="#A5E3EE" width="5" height="4.2"/>
<rect x="19.1" y="18" fill="#A5E3EE" width="5" height="4.2"/>
<rect x="24.2" y="22.2" fill="#A5E3EE" width="5" height="4.2"/>
<rect x="14.1" y="9.6" fill="#CFEFF9" width="5" height="4.2"/>
<rect x="14.1" y="13.8" fill="#056187" width="5" height="4.2"/>
<rect x="9" y="18" fill="#A5E3EE" width="5" height="4.2"/>
<rect x="19.1" y="26.4" fill="#239BBE" width="5" height="4.2"/>
<rect x="14.1" y="18" fill="#239BBE" width="5" height="4.2"/>
<rect x="34.3" y="22.2" fill="#CFEFF9" width="5" height="4.2"/>
<rect x="38.9" y="18" fill="#4BB6D0" width="5" height="4.2"/>
<rect x="34.2" y="18" fill="#A5E3EE" width="5" height="4.2"/>
<rect x="19.1" y="13.8" fill="#A5E3EE" width="5" height="4.2"/>
<rect x="29.2" y="18" fill="#239BBE" width="5" height="4.2"/>
<rect x="24.2" y="13.8" fill="#CFEFF9" width="5" height="4.2"/>
<rect x="29.2" y="9.6" fill="#4BB6D0" width="5" height="4.2"/>
<rect x="24.2" y="9.6" fill="#A5E3EE" width="5" height="4.2"/>
<rect x="29.2" y="13.8" fill="#A5E3EE" width="5" height="4.2"/>
<rect x="19.1" y="9.6" fill="#239BBE" width="5" height="4.2"/>
<rect x="34.2" y="13.8" fill="#4BB6D0" width="5" height="4.2"/>
<rect x="19.1" y="5.5" fill="#A5E3EE" width="5" height="4.2"/>
<rect x="24.2" y="5.5" fill="#239BBE" width="5" height="4.2"/>
</svg>
