<?xml version="1.0" encoding="utf-8"?>
<!-- Generator: Adobe Illustrator 17.1.0, SVG Export Plug-In . SVG Version: 6.00 Build 0)  -->
<!DOCTYPE svg PUBLIC "-//W3C//DTD SVG 1.1//EN" "http://www.w3.org/Graphics/SVG/1.1/DTD/svg11.dtd">
<svg version="1.1"
	 id="Layer_1" xmlns:cc="http://creativecommons.org/ns#" xmlns:rdf="http://www.w3.org/1999/02/22-rdf-syntax-ns#" xmlns:dc="http://purl.org/dc/elements/1.1/"
	 xmlns="http://www.w3.org/2000/svg" xmlns:xlink="http://www.w3.org/1999/xlink" x="0px" y="0px" viewBox="0 0 252 120"
	 enable-background="new 0 0 252 120" xml:space="preserve">
<rect x="114.02" y="52.116" fill="#CFEFF9" width="13.959" height="11.573"/>
<rect x="100.061" y="52.116" fill="#A5E3EE" width="13.959" height="11.573"/>
<rect x="127.98" y="40.542" fill="#4BB6D0" width="13.959" height="11.573"/>
<rect x="72.132" y="40.542" fill="#A5E3EE" width="13.959" height="11.573"/>
<rect x="86.101" y="52.116" fill="#239BBE" width="13.959" height="11.573"/>
<rect x="86.101" y="28.969" fill="#A5E3EE" width="13.959" height="11.573"/>
<rect x="114.02" y="40.542" fill="#A5E3EE" width="13.959" height="11.573"/>
<rect x="127.98" y="52.116" fill="#A5E3EE" width="13.959" height="11.573"/>
<rect x="100.161" y="17.396" fill="#CFEFF9" width="13.959" height="11.573"/>
<rect x="100.061" y="28.969" fill="#056187" width="13.959" height="11.573"/>
<rect x="86.101" y="40.542" fill="#A5E3EE" width="13.959" height="11.573"/>
<rect x="114.02" y="63.689" fill="#239BBE" width="13.959" height="11.573"/>
<rect x="100.061" y="40.542" fill="#239BBE" width="13.959" height="11.573"/>
<rect x="156.07" y="52.116" fill="#CFEFF9" width="13.959" height="11.573"/>
<rect x="168.872" y="40.542" fill="#4BB6D0" width="13.959" height="11.573"/>
<rect x="155.684" y="40.542" fill="#A5E3EE" width="13.959" height="11.573"/>
<rect x="114.02" y="28.969" fill="#A5E3EE" width="13.959" height="11.573"/>
<rect x="141.939" y="40.542" fill="#239BBE" width="13.959" height="11.573"/>
<rect x="127.98" y="28.969" fill="#CFEFF9" width="13.959" height="11.573"/>
<rect x="141.939" y="17.396" fill="#4BB6D0" width="13.959" height="11.573"/>
<rect x="127.98" y="17.396" fill="#A5E3EE" width="13.959" height="11.573"/>
<rect x="141.939" y="28.969" fill="#A5E3EE" width="13.959" height="11.573"/>
<rect x="114.02" y="17.396" fill="#239BBE" width="13.959" height="11.573"/>
<rect x="155.684" y="28.969" fill="#4BB6D0" width="13.959" height="11.573"/>
<text transform="matrix(1 0 0 1 34.648 114.1773)" fill="#056187" font-family="'SquareFont'" font-size="39.2632">owncloud</text>
<rect x="114.02" y="5.823" fill="#A5E3EE" width="13.959" height="11.573"/>
<rect x="127.98" y="5.823" fill="#239BBE" width="13.959" height="11.573"/>
</svg>
